<svg width="198" height="60" viewBox="0 0 198 60" fill="none" xmlns="http://www.w3.org/2000/svg">
<path d="M41.3984 29.5391H38.3594V28.3125H41.3984C41.987 28.3125 42.4635 28.2188 42.8281 28.0312C43.1927 27.8438 43.4583 27.5833 43.625 27.25C43.7969 26.9167 43.8828 26.5365 43.8828 26.1094C43.8828 25.7188 43.7969 25.3516 43.625 25.0078C43.4583 24.6641 43.1927 24.388 42.8281 24.1797C42.4635 23.9661 41.987 23.8594 41.3984 23.8594H38.7109V34H37.2031V22.625H41.3984C42.2578 22.625 42.9844 22.7734 43.5781 23.0703C44.1719 23.3672 44.6224 23.7786 44.9297 24.3047C45.237 24.8255 45.3906 25.4219 45.3906 26.0938C45.3906 26.8229 45.237 27.4453 44.9297 27.9609C44.6224 28.4766 44.1719 28.8698 43.5781 29.1406C42.9844 29.4062 42.2578 29.5391 41.3984 29.5391Z" fill="black"/>
<path d="M48.6484 22V34H47.1953V22H48.6484Z" fill="black"/>
<path d="M55.9531 32.5547V28.2031C55.9531 27.8698 55.8854 27.5807 55.75 27.3359C55.6198 27.0859 55.4219 26.8932 55.1562 26.7578C54.8906 26.6224 54.5625 26.5547 54.1719 26.5547C53.8073 26.5547 53.487 26.6172 53.2109 26.7422C52.9401 26.8672 52.7265 27.0312 52.5703 27.2344C52.4193 27.4375 52.3437 27.6562 52.3437 27.8906H50.8984C50.8984 27.5885 50.9765 27.2891 51.1328 26.9922C51.289 26.6953 51.513 26.4271 51.8047 26.1875C52.1015 25.9427 52.4557 25.75 52.8672 25.6094C53.2838 25.4635 53.7474 25.3906 54.2578 25.3906C54.8724 25.3906 55.414 25.4948 55.8828 25.7031C56.3568 25.9115 56.7265 26.2266 56.9922 26.6484C57.263 27.0651 57.3984 27.5885 57.3984 28.2188V32.1562C57.3984 32.4375 57.4219 32.737 57.4687 33.0547C57.5208 33.3724 57.5963 33.6458 57.6953 33.875V34H56.1875C56.1146 33.8333 56.0573 33.612 56.0156 33.3359C55.9739 33.0547 55.9531 32.7943 55.9531 32.5547ZM56.2031 28.875L56.2187 29.8906H54.7578C54.3463 29.8906 53.9791 29.9245 53.6562 29.9922C53.3333 30.0547 53.0625 30.151 52.8437 30.2812C52.625 30.4115 52.4583 30.5755 52.3437 30.7734C52.2291 30.9661 52.1719 31.1927 52.1719 31.4531C52.1719 31.7188 52.2318 31.9609 52.3515 32.1797C52.4713 32.3984 52.651 32.5729 52.8906 32.7031C53.1354 32.8281 53.4349 32.8906 53.789 32.8906C54.2318 32.8906 54.6224 32.7969 54.9609 32.6094C55.2995 32.4219 55.5677 32.1927 55.7656 31.9219C55.9687 31.651 56.0781 31.388 56.0937 31.1328L56.7109 31.8281C56.6745 32.0469 56.5755 32.2891 56.414 32.5547C56.2526 32.8203 56.0364 33.0755 55.7656 33.3203C55.5 33.5599 55.1823 33.7604 54.8125 33.9219C54.4479 34.0781 54.0364 34.1562 53.5781 34.1562C53.0052 34.1562 52.5026 34.0443 52.0703 33.8203C51.6432 33.5964 51.3099 33.2969 51.0703 32.9219C50.8359 32.5417 50.7187 32.1172 50.7187 31.6484C50.7187 31.1953 50.8073 30.7969 50.9844 30.4531C51.1614 30.1042 51.4166 29.8151 51.75 29.5859C52.0833 29.3516 52.4844 29.1745 52.9531 29.0547C53.4219 28.9349 53.9453 28.875 54.5234 28.875H56.2031Z" fill="black"/>
<path d="M61.1172 27.3516V34H59.6719V25.5469H61.039L61.1172 27.3516ZM60.7734 29.4531L60.1719 29.4297C60.1771 28.8516 60.263 28.3177 60.4297 27.8281C60.5963 27.3333 60.8307 26.9036 61.1328 26.5391C61.4349 26.1745 61.7943 25.8932 62.2109 25.6953C62.6328 25.4922 63.0989 25.3906 63.6094 25.3906C64.026 25.3906 64.401 25.4479 64.7344 25.5625C65.0677 25.6719 65.3515 25.849 65.5859 26.0938C65.8255 26.3385 66.0078 26.6562 66.1328 27.0469C66.2578 27.4323 66.3203 27.9036 66.3203 28.4609V34H64.8672V28.4453C64.8672 28.0026 64.8021 27.6484 64.6719 27.3828C64.5416 27.112 64.3515 26.9167 64.1015 26.7969C63.8515 26.6719 63.5443 26.6094 63.1797 26.6094C62.8203 26.6094 62.4922 26.6849 62.1953 26.8359C61.9036 26.987 61.651 27.1953 61.4375 27.4609C61.2291 27.7266 61.0651 28.0312 60.9453 28.375C60.8307 28.7135 60.7734 29.0729 60.7734 29.4531Z" fill="black"/>
<path d="M69.9609 27.3516V34H68.5156V25.5469H69.8828L69.9609 27.3516ZM69.6172 29.4531L69.0156 29.4297C69.0208 28.8516 69.1068 28.3177 69.2734 27.8281C69.4401 27.3333 69.6745 26.9036 69.9765 26.5391C70.2786 26.1745 70.638 25.8932 71.0547 25.6953C71.4765 25.4922 71.9427 25.3906 72.4531 25.3906C72.8698 25.3906 73.2448 25.4479 73.5781 25.5625C73.9114 25.6719 74.1953 25.849 74.4297 26.0938C74.6693 26.3385 74.8515 26.6562 74.9765 27.0469C75.1015 27.4323 75.164 27.9036 75.164 28.4609V34H73.7109V28.4453C73.7109 28.0026 73.6458 27.6484 73.5156 27.3828C73.3854 27.112 73.1953 26.9167 72.9453 26.7969C72.6953 26.6719 72.388 26.6094 72.0234 26.6094C71.664 26.6094 71.3359 26.6849 71.039 26.8359C70.7474 26.987 70.4948 27.1953 70.2812 27.4609C70.0729 27.7266 69.9088 28.0312 69.789 28.375C69.6745 28.7135 69.6172 29.0729 69.6172 29.4531Z" fill="black"/>
<path d="M78.9297 25.5469V34H77.4765V25.5469H78.9297ZM77.3672 23.3047C77.3672 23.0703 77.4375 22.8724 77.5781 22.7109C77.7239 22.5495 77.9375 22.4688 78.2187 22.4688C78.4948 22.4688 78.7057 22.5495 78.8515 22.7109C79.0026 22.8724 79.0781 23.0703 79.0781 23.3047C79.0781 23.5286 79.0026 23.7214 78.8515 23.8828C78.7057 24.0391 78.4948 24.1172 78.2187 24.1172C77.9375 24.1172 77.7239 24.0391 77.5781 23.8828C77.4375 23.7214 77.3672 23.5286 77.3672 23.3047Z" fill="black"/>
<path d="M82.6953 27.3516V34H81.25V25.5469H82.6172L82.6953 27.3516ZM82.3515 29.4531L81.75 29.4297C81.7552 28.8516 81.8411 28.3177 82.0078 27.8281C82.1745 27.3333 82.4088 26.9036 82.7109 26.5391C83.013 26.1745 83.3724 25.8932 83.789 25.6953C84.2109 25.4922 84.6771 25.3906 85.1875 25.3906C85.6042 25.3906 85.9792 25.4479 86.3125 25.5625C86.6458 25.6719 86.9297 25.849 87.164 26.0938C87.4036 26.3385 87.5859 26.6562 87.7109 27.0469C87.8359 27.4323 87.8984 27.9036 87.8984 28.4609V34H86.4453V28.4453C86.4453 28.0026 86.3802 27.6484 86.25 27.3828C86.1198 27.112 85.9297 26.9167 85.6797 26.7969C85.4297 26.6719 85.1224 26.6094 84.7578 26.6094C84.3984 26.6094 84.0703 26.6849 83.7734 26.8359C83.4818 26.987 83.2292 27.1953 83.0156 27.4609C82.8073 27.7266 82.6432 28.0312 82.5234 28.375C82.4088 28.7135 82.3515 29.0729 82.3515 29.4531Z" fill="black"/>
<path d="M95.5703 25.5469H96.8828V33.8203C96.8828 34.5651 96.7318 35.2005 96.4297 35.7266C96.1276 36.2526 95.7057 36.651 95.164 36.9219C94.6276 37.1979 94.0078 37.3359 93.3047 37.3359C93.013 37.3359 92.6693 37.2891 92.2734 37.1953C91.8828 37.1068 91.4974 36.9531 91.1172 36.7344C90.7422 36.5208 90.4271 36.2318 90.1719 35.8672L90.9297 35.0078C91.2838 35.4349 91.6536 35.7318 92.039 35.8984C92.4297 36.0651 92.8151 36.1484 93.1953 36.1484C93.6536 36.1484 94.0495 36.0625 94.3828 35.8906C94.7161 35.7188 94.9739 35.4635 95.1562 35.125C95.3437 34.7917 95.4375 34.3802 95.4375 33.8906V27.4062L95.5703 25.5469ZM89.75 29.8672V29.7031C89.75 29.0573 89.8255 28.4714 89.9765 27.9453C90.1328 27.4141 90.3542 26.9583 90.6406 26.5781C90.9323 26.1979 91.2838 25.9062 91.6953 25.7031C92.1068 25.4948 92.5703 25.3906 93.0859 25.3906C93.6172 25.3906 94.0807 25.4844 94.4765 25.6719C94.8776 25.8542 95.2161 26.1224 95.4922 26.4766C95.7734 26.8255 95.9948 27.2474 96.1562 27.7422C96.3177 28.237 96.4297 28.7969 96.4922 29.4219V30.1406C96.4349 30.7604 96.3229 31.3177 96.1562 31.8125C95.9948 32.3073 95.7734 32.7292 95.4922 33.0781C95.2161 33.4271 94.8776 33.6953 94.4765 33.8828C94.0755 34.0651 93.6068 34.1562 93.0703 34.1562C92.5651 34.1562 92.1068 34.0495 91.6953 33.8359C91.289 33.6224 90.9401 33.3229 90.6484 32.9375C90.3568 32.5521 90.1328 32.099 89.9765 31.5781C89.8255 31.0521 89.75 30.4818 89.75 29.8672ZM91.1953 29.7031V29.8672C91.1953 30.2891 91.237 30.6849 91.3203 31.0547C91.4088 31.4245 91.5417 31.75 91.7187 32.0312C91.901 32.3125 92.1328 32.5339 92.414 32.6953C92.6953 32.8516 93.0312 32.9297 93.4219 32.9297C93.901 32.9297 94.2969 32.8281 94.6094 32.625C94.9219 32.4219 95.1693 32.1536 95.3515 31.8203C95.539 31.487 95.6849 31.125 95.789 30.7344V28.8516C95.7318 28.5651 95.6432 28.2891 95.5234 28.0234C95.4088 27.7526 95.2578 27.513 95.0703 27.3047C94.888 27.0911 94.6614 26.9219 94.3906 26.7969C94.1198 26.6719 93.8021 26.6094 93.4375 26.6094C93.0417 26.6094 92.7005 26.6927 92.414 26.8594C92.1328 27.0208 91.901 27.2448 91.7187 27.5312C91.5417 27.8125 91.4088 28.1406 91.3203 28.5156C91.237 28.8854 91.1953 29.2812 91.1953 29.7031Z" fill="black"/>
<path d="M110.133 30.3828H111.633C111.555 31.1016 111.349 31.7448 111.016 32.3125C110.682 32.8802 110.211 33.3307 109.602 33.6641C108.992 33.9922 108.232 34.1562 107.32 34.1562C106.654 34.1562 106.047 34.0312 105.5 33.7812C104.958 33.5312 104.492 33.1771 104.102 32.7188C103.711 32.2552 103.409 31.7005 103.195 31.0547C102.987 30.4036 102.883 29.6797 102.883 28.8828V27.75C102.883 26.9531 102.987 26.2318 103.195 25.5859C103.409 24.9349 103.714 24.3776 104.109 23.9141C104.51 23.4505 104.992 23.0938 105.555 22.8438C106.117 22.5938 106.75 22.4688 107.453 22.4688C108.312 22.4688 109.039 22.6302 109.633 22.9531C110.227 23.276 110.687 23.724 111.016 24.2969C111.349 24.8646 111.555 25.5234 111.633 26.2734H110.133C110.06 25.7422 109.924 25.2865 109.727 24.9062C109.529 24.5208 109.247 24.224 108.883 24.0156C108.518 23.8073 108.042 23.7031 107.453 23.7031C106.948 23.7031 106.503 23.7995 106.117 23.9922C105.737 24.1849 105.417 24.4583 105.156 24.8125C104.901 25.1667 104.708 25.5911 104.578 26.0859C104.448 26.5807 104.383 27.1302 104.383 27.7344V28.8828C104.383 29.4401 104.44 29.9635 104.555 30.4531C104.674 30.9427 104.854 31.3724 105.094 31.7422C105.333 32.112 105.638 32.4036 106.008 32.6172C106.378 32.8255 106.815 32.9297 107.32 32.9297C107.961 32.9297 108.471 32.8281 108.852 32.625C109.232 32.4219 109.518 32.1302 109.711 31.75C109.909 31.3698 110.049 30.9141 110.133 30.3828Z" fill="black"/>
<path d="M113.086 29.8672V29.6875C113.086 29.0781 113.174 28.513 113.352 27.9922C113.529 27.4661 113.784 27.0104 114.117 26.625C114.451 26.2344 114.854 25.9323 115.328 25.7188C115.802 25.5 116.333 25.3906 116.922 25.3906C117.516 25.3906 118.049 25.5 118.523 25.7188C119.003 25.9323 119.409 26.2344 119.742 26.625C120.081 27.0104 120.339 27.4661 120.516 27.9922C120.693 28.513 120.781 29.0781 120.781 29.6875V29.8672C120.781 30.4766 120.693 31.0417 120.516 31.5625C120.339 32.0833 120.081 32.5391 119.742 32.9297C119.409 33.3151 119.005 33.6172 118.531 33.8359C118.062 34.0495 117.531 34.1562 116.937 34.1562C116.344 34.1562 115.81 34.0495 115.336 33.8359C114.862 33.6172 114.456 33.3151 114.117 32.9297C113.784 32.5391 113.529 32.0833 113.352 31.5625C113.174 31.0417 113.086 30.4766 113.086 29.8672ZM114.531 29.6875V29.8672C114.531 30.2891 114.581 30.6875 114.68 31.0625C114.779 31.4323 114.927 31.7604 115.125 32.0469C115.328 32.3333 115.581 32.5599 115.883 32.7266C116.185 32.888 116.536 32.9688 116.937 32.9688C117.333 32.9688 117.68 32.888 117.977 32.7266C118.279 32.5599 118.529 32.3333 118.727 32.0469C118.924 31.7604 119.073 31.4323 119.172 31.0625C119.276 30.6875 119.328 30.2891 119.328 29.8672V29.6875C119.328 29.2708 119.276 28.8776 119.172 28.5078C119.073 28.1328 118.922 27.8021 118.719 27.5156C118.521 27.224 118.271 26.9948 117.969 26.8281C117.672 26.6615 117.323 26.5781 116.922 26.5781C116.526 26.5781 116.177 26.6615 115.875 26.8281C115.578 26.9948 115.328 27.224 115.125 27.5156C114.927 27.8021 114.779 28.1328 114.68 28.5078C114.581 28.8776 114.531 29.2708 114.531 29.6875Z" fill="black"/>
<path d="M124.031 27.2266V34H122.578V25.5469H123.953L124.031 27.2266ZM123.734 29.4531L123.062 29.4297C123.068 28.8516 123.143 28.3177 123.289 27.8281C123.435 27.3333 123.651 26.9036 123.937 26.5391C124.224 26.1745 124.581 25.8932 125.008 25.6953C125.435 25.4922 125.93 25.3906 126.492 25.3906C126.888 25.3906 127.253 25.4479 127.586 25.5625C127.919 25.6719 128.208 25.8464 128.453 26.0859C128.698 26.3255 128.888 26.6328 129.023 27.0078C129.159 27.3828 129.227 27.8359 129.227 28.3672V34H127.781V28.4375C127.781 27.9948 127.706 27.6406 127.555 27.375C127.409 27.1094 127.201 26.9167 126.93 26.7969C126.659 26.6719 126.341 26.6094 125.977 26.6094C125.549 26.6094 125.193 26.6849 124.906 26.8359C124.62 26.987 124.391 27.1953 124.219 27.4609C124.047 27.7266 123.922 28.0312 123.844 28.375C123.771 28.7135 123.734 29.0729 123.734 29.4531ZM129.211 28.6562L128.242 28.9531C128.247 28.4896 128.323 28.0443 128.469 27.6172C128.62 27.1901 128.836 26.8099 129.117 26.4766C129.404 26.1432 129.755 25.8802 130.172 25.6875C130.589 25.4896 131.065 25.3906 131.602 25.3906C132.055 25.3906 132.456 25.4505 132.805 25.5703C133.159 25.6901 133.456 25.875 133.695 26.125C133.94 26.3698 134.125 26.6849 134.25 27.0703C134.375 27.4557 134.437 27.9141 134.437 28.4453V34H132.984V28.4297C132.984 27.9557 132.909 27.5885 132.758 27.3281C132.612 27.0625 132.404 26.8776 132.133 26.7734C131.867 26.6641 131.549 26.6094 131.18 26.6094C130.862 26.6094 130.581 26.6641 130.336 26.7734C130.091 26.8828 129.885 27.0339 129.719 27.2266C129.552 27.4141 129.424 27.6302 129.336 27.875C129.253 28.1198 129.211 28.3802 129.211 28.6562Z" fill="black"/>
<path d="M138.07 27.1719V37.25H136.617V25.5469H137.945L138.07 27.1719ZM143.766 29.7031V29.8672C143.766 30.4818 143.693 31.0521 143.547 31.5781C143.401 32.099 143.187 32.5521 142.906 32.9375C142.63 33.3229 142.289 33.6224 141.883 33.8359C141.477 34.0495 141.01 34.1562 140.484 34.1562C139.948 34.1562 139.474 34.0677 139.062 33.8906C138.651 33.7135 138.302 33.4557 138.016 33.1172C137.729 32.7786 137.5 32.3724 137.328 31.8984C137.161 31.4245 137.047 30.8906 136.984 30.2969V29.4219C137.047 28.7969 137.164 28.237 137.336 27.7422C137.508 27.2474 137.734 26.8255 138.016 26.4766C138.302 26.1224 138.648 25.8542 139.055 25.6719C139.461 25.4844 139.93 25.3906 140.461 25.3906C140.992 25.3906 141.464 25.4948 141.875 25.7031C142.286 25.9062 142.633 26.1979 142.914 26.5781C143.195 26.9583 143.406 27.4141 143.547 27.9453C143.693 28.4714 143.766 29.0573 143.766 29.7031ZM142.312 29.8672V29.7031C142.312 29.2812 142.268 28.8854 142.18 28.5156C142.091 28.1406 141.953 27.8125 141.766 27.5312C141.583 27.2448 141.349 27.0208 141.062 26.8594C140.776 26.6927 140.435 26.6094 140.039 26.6094C139.674 26.6094 139.357 26.6719 139.086 26.7969C138.82 26.9219 138.594 27.0911 138.406 27.3047C138.219 27.513 138.065 27.7526 137.945 28.0234C137.831 28.2891 137.745 28.5651 137.687 28.8516V30.875C137.792 31.2396 137.937 31.5833 138.125 31.9062C138.312 32.224 138.562 32.4818 138.875 32.6797C139.187 32.8724 139.581 32.9688 140.055 32.9688C140.445 32.9688 140.781 32.888 141.062 32.7266C141.349 32.5599 141.583 32.3333 141.766 32.0469C141.953 31.7604 142.091 31.4323 142.18 31.0625C142.268 30.6875 142.312 30.2891 142.312 29.8672Z" fill="black"/>
<path d="M147.18 22V34H145.727V22H147.18Z" fill="black"/>
<path d="M153.008 34.1562C152.419 34.1562 151.885 34.0573 151.406 33.8594C150.932 33.6562 150.523 33.3724 150.18 33.0078C149.841 32.6432 149.581 32.2109 149.398 31.7109C149.216 31.2109 149.125 30.6641 149.125 30.0703V29.7422C149.125 29.0547 149.227 28.4427 149.43 27.9062C149.633 27.3646 149.909 26.9062 150.258 26.5312C150.607 26.1562 151.003 25.8724 151.445 25.6797C151.888 25.487 152.346 25.3906 152.82 25.3906C153.424 25.3906 153.945 25.4948 154.383 25.7031C154.826 25.9115 155.187 26.2031 155.469 26.5781C155.75 26.9479 155.958 27.3854 156.094 27.8906C156.229 28.3906 156.297 28.9375 156.297 29.5312V30.1797H149.984V29H154.852V28.8906C154.831 28.5156 154.753 28.151 154.617 27.7969C154.487 27.4427 154.279 27.151 153.992 26.9219C153.706 26.6927 153.315 26.5781 152.82 26.5781C152.492 26.5781 152.19 26.6484 151.914 26.7891C151.638 26.9245 151.401 27.1276 151.203 27.3984C151.005 27.6693 150.852 28 150.742 28.3906C150.633 28.7812 150.578 29.2318 150.578 29.7422V30.0703C150.578 30.4714 150.633 30.849 150.742 31.2031C150.857 31.5521 151.021 31.8594 151.234 32.125C151.453 32.3906 151.716 32.599 152.023 32.75C152.336 32.901 152.69 32.9766 153.086 32.9766C153.596 32.9766 154.029 32.8724 154.383 32.6641C154.737 32.4557 155.047 32.1771 155.312 31.8281L156.187 32.5234C156.005 32.7995 155.773 33.0625 155.492 33.3125C155.211 33.5625 154.865 33.7656 154.453 33.9219C154.047 34.0781 153.565 34.1562 153.008 34.1562Z" fill="black"/>
<path d="M161.523 25.5469V26.6562H156.953V25.5469H161.523ZM158.5 23.4922H159.945V31.9062C159.945 32.1927 159.99 32.4089 160.078 32.5547C160.167 32.7005 160.281 32.7969 160.422 32.8438C160.562 32.8906 160.714 32.9141 160.875 32.9141C160.995 32.9141 161.12 32.9036 161.25 32.8828C161.385 32.8568 161.487 32.8359 161.555 32.8203L161.562 34C161.448 34.0365 161.297 34.0703 161.109 34.1016C160.927 34.138 160.706 34.1562 160.445 34.1562C160.091 34.1562 159.766 34.0859 159.469 33.9453C159.172 33.8047 158.935 33.5703 158.758 33.2422C158.586 32.9089 158.5 32.4609 158.5 31.8984V23.4922Z" fill="black"/>
</svg>
