<svg width="198" height="60" viewBox="0 0 198 60" fill="none" xmlns="http://www.w3.org/2000/svg">
<path d="M0 30C0 13.4315 13.4315 0 30 0H167.116C183.685 0 197.116 13.4315 197.116 30C197.116 46.5685 183.685 60 167.116 60H30C13.4314 60 0 46.5685 0 30Z" fill="white"/>
<path d="M40.5145 29.5391H37.4754V28.3125H40.5145C41.103 28.3125 41.5796 28.2188 41.9442 28.0312C42.3088 27.8438 42.5744 27.5833 42.7411 27.25C42.9129 26.9167 42.9989 26.5365 42.9989 26.1094C42.9989 25.7188 42.9129 25.3516 42.7411 25.0078C42.5744 24.6641 42.3088 24.388 41.9442 24.1797C41.5796 23.9661 41.103 23.8594 40.5145 23.8594H37.827V34H36.3192V22.625H40.5145C41.3739 22.625 42.1004 22.7734 42.6942 23.0703C43.2879 23.3672 43.7385 23.7786 44.0458 24.3047C44.353 24.8255 44.5067 25.4219 44.5067 26.0938C44.5067 26.8229 44.353 27.4453 44.0458 27.9609C43.7385 28.4766 43.2879 28.8698 42.6942 29.1406C42.1004 29.4062 41.3739 29.5391 40.5145 29.5391Z" fill="white"/>
<path d="M47.7645 22V34H46.3114V22H47.7645Z" fill="white"/>
<path d="M55.0692 32.5547V28.2031C55.0692 27.8698 55.0015 27.5807 54.8661 27.3359C54.7359 27.0859 54.5379 26.8932 54.2723 26.7578C54.0067 26.6224 53.6786 26.5547 53.2879 26.5547C52.9234 26.5547 52.603 26.6172 52.327 26.7422C52.0562 26.8672 51.8426 27.0312 51.6864 27.2344C51.5353 27.4375 51.4598 27.6562 51.4598 27.8906H50.0145C50.0145 27.5885 50.0926 27.2891 50.2489 26.9922C50.4051 26.6953 50.6291 26.4271 50.9208 26.1875C51.2176 25.9427 51.5718 25.75 51.9833 25.6094C52.3999 25.4635 52.8635 25.3906 53.3739 25.3906C53.9885 25.3906 54.5301 25.4948 54.9989 25.7031C55.4728 25.9115 55.8426 26.2266 56.1083 26.6484C56.3791 27.0651 56.5145 27.5885 56.5145 28.2188V32.1562C56.5145 32.4375 56.5379 32.737 56.5848 33.0547C56.6369 33.3724 56.7124 33.6458 56.8114 33.875V34H55.3036C55.2307 33.8333 55.1734 33.612 55.1317 33.3359C55.09 33.0547 55.0692 32.7943 55.0692 32.5547ZM55.3192 28.875L55.3348 29.8906H53.8739C53.4624 29.8906 53.0952 29.9245 52.7723 29.9922C52.4494 30.0547 52.1786 30.151 51.9598 30.2812C51.7411 30.4115 51.5744 30.5755 51.4598 30.7734C51.3452 30.9661 51.2879 31.1927 51.2879 31.4531C51.2879 31.7188 51.3478 31.9609 51.4676 32.1797C51.5874 32.3984 51.7671 32.5729 52.0067 32.7031C52.2515 32.8281 52.551 32.8906 52.9051 32.8906C53.3478 32.8906 53.7385 32.7969 54.077 32.6094C54.4155 32.4219 54.6838 32.1927 54.8817 31.9219C55.0848 31.651 55.1942 31.388 55.2098 31.1328L55.827 31.8281C55.7905 32.0469 55.6916 32.2891 55.5301 32.5547C55.3687 32.8203 55.1525 33.0755 54.8817 33.3203C54.6161 33.5599 54.2984 33.7604 53.9286 33.9219C53.564 34.0781 53.1525 34.1562 52.6942 34.1562C52.1213 34.1562 51.6187 34.0443 51.1864 33.8203C50.7593 33.5964 50.426 33.2969 50.1864 32.9219C49.952 32.5417 49.8348 32.1172 49.8348 31.6484C49.8348 31.1953 49.9234 30.7969 50.1004 30.4531C50.2775 30.1042 50.5327 29.8151 50.8661 29.5859C51.1994 29.3516 51.6004 29.1745 52.0692 29.0547C52.5379 28.9349 53.0614 28.875 53.6395 28.875H55.3192Z" fill="white"/>
<path d="M60.2333 27.3516V34H58.7879V25.5469H60.1551L60.2333 27.3516ZM59.8895 29.4531L59.2879 29.4297C59.2932 28.8516 59.3791 28.3177 59.5458 27.8281C59.7124 27.3333 59.9468 26.9036 60.2489 26.5391C60.551 26.1745 60.9103 25.8932 61.327 25.6953C61.7489 25.4922 62.215 25.3906 62.7254 25.3906C63.1421 25.3906 63.5171 25.4479 63.8504 25.5625C64.1838 25.6719 64.4676 25.849 64.702 26.0938C64.9416 26.3385 65.1239 26.6562 65.2489 27.0469C65.3739 27.4323 65.4364 27.9036 65.4364 28.4609V34H63.9833V28.4453C63.9833 28.0026 63.9182 27.6484 63.7879 27.3828C63.6577 27.112 63.4676 26.9167 63.2176 26.7969C62.9676 26.6719 62.6603 26.6094 62.2958 26.6094C61.9364 26.6094 61.6083 26.6849 61.3114 26.8359C61.0197 26.987 60.7671 27.1953 60.5536 27.4609C60.3452 27.7266 60.1812 28.0312 60.0614 28.375C59.9468 28.7135 59.8895 29.0729 59.8895 29.4531Z" fill="white"/>
<path d="M69.077 27.3516V34H67.6317V25.5469H68.9989L69.077 27.3516ZM68.7333 29.4531L68.1317 29.4297C68.1369 28.8516 68.2228 28.3177 68.3895 27.8281C68.5562 27.3333 68.7906 26.9036 69.0926 26.5391C69.3947 26.1745 69.7541 25.8932 70.1708 25.6953C70.5926 25.4922 71.0588 25.3906 71.5692 25.3906C71.9859 25.3906 72.3609 25.4479 72.6942 25.5625C73.0275 25.6719 73.3114 25.849 73.5458 26.0938C73.7853 26.3385 73.9676 26.6562 74.0926 27.0469C74.2176 27.4323 74.2801 27.9036 74.2801 28.4609V34H72.827V28.4453C72.827 28.0026 72.7619 27.6484 72.6317 27.3828C72.5015 27.112 72.3114 26.9167 72.0614 26.7969C71.8114 26.6719 71.5041 26.6094 71.1395 26.6094C70.7801 26.6094 70.452 26.6849 70.1551 26.8359C69.8635 26.987 69.6109 27.1953 69.3973 27.4609C69.189 27.7266 69.0249 28.0312 68.9051 28.375C68.7906 28.7135 68.7333 29.0729 68.7333 29.4531Z" fill="white"/>
<path d="M78.0458 25.5469V34H76.5926V25.5469H78.0458ZM76.4833 23.3047C76.4833 23.0703 76.5536 22.8724 76.6942 22.7109C76.84 22.5495 77.0536 22.4688 77.3348 22.4688C77.6109 22.4688 77.8218 22.5495 77.9676 22.7109C78.1187 22.8724 78.1942 23.0703 78.1942 23.3047C78.1942 23.5286 78.1187 23.7214 77.9676 23.8828C77.8218 24.0391 77.6109 24.1172 77.3348 24.1172C77.0536 24.1172 76.84 24.0391 76.6942 23.8828C76.5536 23.7214 76.4833 23.5286 76.4833 23.3047Z" fill="white"/>
<path d="M81.8114 27.3516V34H80.3661V25.5469H81.7333L81.8114 27.3516ZM81.4676 29.4531L80.8661 29.4297C80.8713 28.8516 80.9572 28.3177 81.1239 27.8281C81.2906 27.3333 81.5249 26.9036 81.827 26.5391C82.1291 26.1745 82.4885 25.8932 82.9051 25.6953C83.327 25.4922 83.7932 25.3906 84.3036 25.3906C84.7202 25.3906 85.0952 25.4479 85.4286 25.5625C85.7619 25.6719 86.0458 25.849 86.2801 26.0938C86.5197 26.3385 86.702 26.6562 86.827 27.0469C86.952 27.4323 87.0145 27.9036 87.0145 28.4609V34H85.5614V28.4453C85.5614 28.0026 85.4963 27.6484 85.3661 27.3828C85.2359 27.112 85.0458 26.9167 84.7958 26.7969C84.5458 26.6719 84.2385 26.6094 83.8739 26.6094C83.5145 26.6094 83.1864 26.6849 82.8895 26.8359C82.5978 26.987 82.3452 27.1953 82.1317 27.4609C81.9234 27.7266 81.7593 28.0312 81.6395 28.375C81.5249 28.7135 81.4676 29.0729 81.4676 29.4531Z" fill="white"/>
<path d="M94.6864 25.5469H95.9989V33.8203C95.9989 34.5651 95.8478 35.2005 95.5458 35.7266C95.2437 36.2526 94.8218 36.651 94.2801 36.9219C93.7437 37.1979 93.1239 37.3359 92.4208 37.3359C92.1291 37.3359 91.7853 37.2891 91.3895 37.1953C90.9989 37.1068 90.6135 36.9531 90.2333 36.7344C89.8583 36.5208 89.5432 36.2318 89.2879 35.8672L90.0458 35.0078C90.3999 35.4349 90.7697 35.7318 91.1551 35.8984C91.5458 36.0651 91.9312 36.1484 92.3114 36.1484C92.7697 36.1484 93.1656 36.0625 93.4989 35.8906C93.8322 35.7188 94.09 35.4635 94.2723 35.125C94.4598 34.7917 94.5536 34.3802 94.5536 33.8906V27.4062L94.6864 25.5469ZM88.8661 29.8672V29.7031C88.8661 29.0573 88.9416 28.4714 89.0926 27.9453C89.2489 27.4141 89.4702 26.9583 89.7567 26.5781C90.0484 26.1979 90.3999 25.9062 90.8114 25.7031C91.2228 25.4948 91.6864 25.3906 92.202 25.3906C92.7333 25.3906 93.1968 25.4844 93.5926 25.6719C93.9937 25.8542 94.3322 26.1224 94.6083 26.4766C94.8895 26.8255 95.1109 27.2474 95.2723 27.7422C95.4338 28.237 95.5458 28.7969 95.6083 29.4219V30.1406C95.551 30.7604 95.439 31.3177 95.2723 31.8125C95.1109 32.3073 94.8895 32.7292 94.6083 33.0781C94.3322 33.4271 93.9937 33.6953 93.5926 33.8828C93.1916 34.0651 92.7228 34.1562 92.1864 34.1562C91.6812 34.1562 91.2228 34.0495 90.8114 33.8359C90.4051 33.6224 90.0562 33.3229 89.7645 32.9375C89.4728 32.5521 89.2489 32.099 89.0926 31.5781C88.9416 31.0521 88.8661 30.4818 88.8661 29.8672ZM90.3114 29.7031V29.8672C90.3114 30.2891 90.3531 30.6849 90.4364 31.0547C90.5249 31.4245 90.6577 31.75 90.8348 32.0312C91.0171 32.3125 91.2489 32.5339 91.5301 32.6953C91.8114 32.8516 92.1473 32.9297 92.5379 32.9297C93.0171 32.9297 93.4129 32.8281 93.7254 32.625C94.0379 32.4219 94.2853 32.1536 94.4676 31.8203C94.6551 31.487 94.801 31.125 94.9051 30.7344V28.8516C94.8478 28.5651 94.7593 28.2891 94.6395 28.0234C94.5249 27.7526 94.3739 27.513 94.1864 27.3047C94.0041 27.0911 93.7775 26.9219 93.5067 26.7969C93.2359 26.6719 92.9182 26.6094 92.5536 26.6094C92.1577 26.6094 91.8166 26.6927 91.5301 26.8594C91.2489 27.0208 91.0171 27.2448 90.8348 27.5312C90.6577 27.8125 90.5249 28.1406 90.4364 28.5156C90.3531 28.8854 90.3114 29.2812 90.3114 29.7031Z" fill="white"/>
<path d="M109.249 30.3828H110.749C110.671 31.1016 110.465 31.7448 110.132 32.3125C109.798 32.8802 109.327 33.3307 108.718 33.6641C108.108 33.9922 107.348 34.1562 106.436 34.1562C105.77 34.1562 105.163 34.0312 104.616 33.7812C104.074 33.5312 103.608 33.1771 103.218 32.7188C102.827 32.2552 102.525 31.7005 102.311 31.0547C102.103 30.4036 101.999 29.6797 101.999 28.8828V27.75C101.999 26.9531 102.103 26.2318 102.311 25.5859C102.525 24.9349 102.83 24.3776 103.225 23.9141C103.626 23.4505 104.108 23.0938 104.671 22.8438C105.233 22.5938 105.866 22.4688 106.569 22.4688C107.429 22.4688 108.155 22.6302 108.749 22.9531C109.343 23.276 109.804 23.724 110.132 24.2969C110.465 24.8646 110.671 25.5234 110.749 26.2734H109.249C109.176 25.7422 109.041 25.2865 108.843 24.9062C108.645 24.5208 108.363 24.224 107.999 24.0156C107.634 23.8073 107.158 23.7031 106.569 23.7031C106.064 23.7031 105.619 23.7995 105.233 23.9922C104.853 24.1849 104.533 24.4583 104.272 24.8125C104.017 25.1667 103.824 25.5911 103.694 26.0859C103.564 26.5807 103.499 27.1302 103.499 27.7344V28.8828C103.499 29.4401 103.556 29.9635 103.671 30.4531C103.791 30.9427 103.97 31.3724 104.21 31.7422C104.449 32.112 104.754 32.4036 105.124 32.6172C105.494 32.8255 105.931 32.9297 106.436 32.9297C107.077 32.9297 107.587 32.8281 107.968 32.625C108.348 32.4219 108.634 32.1302 108.827 31.75C109.025 31.3698 109.166 30.9141 109.249 30.3828Z" fill="white"/>
<path d="M112.202 29.8672V29.6875C112.202 29.0781 112.291 28.513 112.468 27.9922C112.645 27.4661 112.9 27.0104 113.233 26.625C113.567 26.2344 113.97 25.9323 114.444 25.7188C114.918 25.5 115.449 25.3906 116.038 25.3906C116.632 25.3906 117.166 25.5 117.64 25.7188C118.119 25.9323 118.525 26.2344 118.858 26.625C119.197 27.0104 119.455 27.4661 119.632 27.9922C119.809 28.513 119.897 29.0781 119.897 29.6875V29.8672C119.897 30.4766 119.809 31.0417 119.632 31.5625C119.455 32.0833 119.197 32.5391 118.858 32.9297C118.525 33.3151 118.121 33.6172 117.647 33.8359C117.179 34.0495 116.647 34.1562 116.054 34.1562C115.46 34.1562 114.926 34.0495 114.452 33.8359C113.978 33.6172 113.572 33.3151 113.233 32.9297C112.9 32.5391 112.645 32.0833 112.468 31.5625C112.291 31.0417 112.202 30.4766 112.202 29.8672ZM113.647 29.6875V29.8672C113.647 30.2891 113.697 30.6875 113.796 31.0625C113.895 31.4323 114.043 31.7604 114.241 32.0469C114.444 32.3333 114.697 32.5599 114.999 32.7266C115.301 32.888 115.653 32.9688 116.054 32.9688C116.449 32.9688 116.796 32.888 117.093 32.7266C117.395 32.5599 117.645 32.3333 117.843 32.0469C118.041 31.7604 118.189 31.4323 118.288 31.0625C118.392 30.6875 118.444 30.2891 118.444 29.8672V29.6875C118.444 29.2708 118.392 28.8776 118.288 28.5078C118.189 28.1328 118.038 27.8021 117.835 27.5156C117.637 27.224 117.387 26.9948 117.085 26.8281C116.788 26.6615 116.439 26.5781 116.038 26.5781C115.642 26.5781 115.293 26.6615 114.991 26.8281C114.694 26.9948 114.444 27.224 114.241 27.5156C114.043 27.8021 113.895 28.1328 113.796 28.5078C113.697 28.8776 113.647 29.2708 113.647 29.6875Z" fill="white"/>
<path d="M123.147 27.2266V34H121.694V25.5469H123.069L123.147 27.2266ZM122.85 29.4531L122.179 29.4297C122.184 28.8516 122.259 28.3177 122.405 27.8281C122.551 27.3333 122.767 26.9036 123.054 26.5391C123.34 26.1745 123.697 25.8932 124.124 25.6953C124.551 25.4922 125.046 25.3906 125.608 25.3906C126.004 25.3906 126.369 25.4479 126.702 25.5625C127.035 25.6719 127.324 25.8464 127.569 26.0859C127.814 26.3255 128.004 26.6328 128.14 27.0078C128.275 27.3828 128.343 27.8359 128.343 28.3672V34H126.897V28.4375C126.897 27.9948 126.822 27.6406 126.671 27.375C126.525 27.1094 126.317 26.9167 126.046 26.7969C125.775 26.6719 125.457 26.6094 125.093 26.6094C124.666 26.6094 124.309 26.6849 124.022 26.8359C123.736 26.987 123.507 27.1953 123.335 27.4609C123.163 27.7266 123.038 28.0312 122.96 28.375C122.887 28.7135 122.85 29.0729 122.85 29.4531ZM128.327 28.6562L127.358 28.9531C127.363 28.4896 127.439 28.0443 127.585 27.6172C127.736 27.1901 127.952 26.8099 128.233 26.4766C128.52 26.1432 128.871 25.8802 129.288 25.6875C129.705 25.4896 130.181 25.3906 130.718 25.3906C131.171 25.3906 131.572 25.4505 131.921 25.5703C132.275 25.6901 132.572 25.875 132.811 26.125C133.056 26.3698 133.241 26.6849 133.366 27.0703C133.491 27.4557 133.554 27.9141 133.554 28.4453V34H132.1V28.4297C132.1 27.9557 132.025 27.5885 131.874 27.3281C131.728 27.0625 131.52 26.8776 131.249 26.7734C130.983 26.6641 130.666 26.6094 130.296 26.6094C129.978 26.6094 129.697 26.6641 129.452 26.7734C129.207 26.8828 129.001 27.0339 128.835 27.2266C128.668 27.4141 128.541 27.6302 128.452 27.875C128.369 28.1198 128.327 28.3802 128.327 28.6562Z" fill="white"/>
<path d="M137.186 27.1719V37.25H135.733V25.5469H137.061L137.186 27.1719ZM142.882 29.7031V29.8672C142.882 30.4818 142.809 31.0521 142.663 31.5781C142.517 32.099 142.304 32.5521 142.022 32.9375C141.746 33.3229 141.405 33.6224 140.999 33.8359C140.593 34.0495 140.126 34.1562 139.6 34.1562C139.064 34.1562 138.59 34.0677 138.179 33.8906C137.767 33.7135 137.418 33.4557 137.132 33.1172C136.845 32.7786 136.616 32.3724 136.444 31.8984C136.278 31.4245 136.163 30.8906 136.1 30.2969V29.4219C136.163 28.7969 136.28 28.237 136.452 27.7422C136.624 27.2474 136.85 26.8255 137.132 26.4766C137.418 26.1224 137.765 25.8542 138.171 25.6719C138.577 25.4844 139.046 25.3906 139.577 25.3906C140.108 25.3906 140.58 25.4948 140.991 25.7031C141.403 25.9062 141.749 26.1979 142.03 26.5781C142.311 26.9583 142.522 27.4141 142.663 27.9453C142.809 28.4714 142.882 29.0573 142.882 29.7031ZM141.429 29.8672V29.7031C141.429 29.2812 141.384 28.8854 141.296 28.5156C141.207 28.1406 141.069 27.8125 140.882 27.5312C140.699 27.2448 140.465 27.0208 140.179 26.8594C139.892 26.6927 139.551 26.6094 139.155 26.6094C138.791 26.6094 138.473 26.6719 138.202 26.7969C137.936 26.9219 137.71 27.0911 137.522 27.3047C137.335 27.513 137.181 27.7526 137.061 28.0234C136.947 28.2891 136.861 28.5651 136.804 28.8516V30.875C136.908 31.2396 137.054 31.5833 137.241 31.9062C137.429 32.224 137.679 32.4818 137.991 32.6797C138.304 32.8724 138.697 32.9688 139.171 32.9688C139.561 32.9688 139.897 32.888 140.179 32.7266C140.465 32.5599 140.699 32.3333 140.882 32.0469C141.069 31.7604 141.207 31.4323 141.296 31.0625C141.384 30.6875 141.429 30.2891 141.429 29.8672Z" fill="white"/>
<path d="M146.296 22V34H144.843V22H146.296Z" fill="white"/>
<path d="M152.124 34.1562C151.535 34.1562 151.001 34.0573 150.522 33.8594C150.048 33.6562 149.64 33.3724 149.296 33.0078C148.957 32.6432 148.697 32.2109 148.515 31.7109C148.332 31.2109 148.241 30.6641 148.241 30.0703V29.7422C148.241 29.0547 148.343 28.4427 148.546 27.9062C148.749 27.3646 149.025 26.9062 149.374 26.5312C149.723 26.1562 150.119 25.8724 150.561 25.6797C151.004 25.487 151.462 25.3906 151.936 25.3906C152.541 25.3906 153.061 25.4948 153.499 25.7031C153.942 25.9115 154.304 26.2031 154.585 26.5781C154.866 26.9479 155.074 27.3854 155.21 27.8906C155.345 28.3906 155.413 28.9375 155.413 29.5312V30.1797H149.1V29H153.968V28.8906C153.947 28.5156 153.869 28.151 153.733 27.7969C153.603 27.4427 153.395 27.151 153.108 26.9219C152.822 26.6927 152.431 26.5781 151.936 26.5781C151.608 26.5781 151.306 26.6484 151.03 26.7891C150.754 26.9245 150.517 27.1276 150.319 27.3984C150.121 27.6693 149.968 28 149.858 28.3906C149.749 28.7812 149.694 29.2318 149.694 29.7422V30.0703C149.694 30.4714 149.749 30.849 149.858 31.2031C149.973 31.5521 150.137 31.8594 150.35 32.125C150.569 32.3906 150.832 32.599 151.14 32.75C151.452 32.901 151.806 32.9766 152.202 32.9766C152.712 32.9766 153.145 32.8724 153.499 32.6641C153.853 32.4557 154.163 32.1771 154.429 31.8281L155.304 32.5234C155.121 32.7995 154.89 33.0625 154.608 33.3125C154.327 33.5625 153.981 33.7656 153.569 33.9219C153.163 34.0781 152.681 34.1562 152.124 34.1562Z" fill="white"/>
<path d="M160.64 25.5469V26.6562H156.069V25.5469H160.64ZM157.616 23.4922H159.061V31.9062C159.061 32.1927 159.106 32.4089 159.194 32.5547C159.283 32.7005 159.397 32.7969 159.538 32.8438C159.679 32.8906 159.83 32.9141 159.991 32.9141C160.111 32.9141 160.236 32.9036 160.366 32.8828C160.501 32.8568 160.603 32.8359 160.671 32.8203L160.679 34C160.564 34.0365 160.413 34.0703 160.225 34.1016C160.043 34.138 159.822 34.1562 159.561 34.1562C159.207 34.1562 158.882 34.0859 158.585 33.9453C158.288 33.8047 158.051 33.5703 157.874 33.2422C157.702 32.9089 157.616 32.4609 157.616 31.8984V23.4922Z" fill="white"/>
</svg>
