<svg width="198" height="60" viewBox="0 0 198 60" fill="none" xmlns="http://www.w3.org/2000/svg">
<path d="M42.4219 29.5391H39.3828V28.3125H42.4219C43.0104 28.3125 43.487 28.2188 43.8515 28.0312C44.2161 27.8438 44.4818 27.5833 44.6484 27.25C44.8203 26.9167 44.9062 26.5365 44.9062 26.1094C44.9062 25.7188 44.8203 25.3516 44.6484 25.0078C44.4818 24.6641 44.2161 24.388 43.8515 24.1797C43.487 23.9661 43.0104 23.8594 42.4219 23.8594H39.7344V34H38.2265V22.625H42.4219C43.2812 22.625 44.0078 22.7734 44.6015 23.0703C45.1953 23.3672 45.6458 23.7786 45.9531 24.3047C46.2604 24.8255 46.414 25.4219 46.414 26.0938C46.414 26.8229 46.2604 27.4453 45.9531 27.9609C45.6458 28.4766 45.1953 28.8698 44.6015 29.1406C44.0078 29.4062 43.2812 29.5391 42.4219 29.5391Z" fill="white"/>
<path d="M49.6719 22V34H48.2187V22H49.6719Z" fill="white"/>
<path d="M56.9765 32.5547V28.2031C56.9765 27.8698 56.9088 27.5807 56.7734 27.3359C56.6432 27.0859 56.4453 26.8932 56.1797 26.7578C55.914 26.6224 55.5859 26.5547 55.1953 26.5547C54.8307 26.5547 54.5104 26.6172 54.2344 26.7422C53.9635 26.8672 53.75 27.0312 53.5937 27.2344C53.4427 27.4375 53.3672 27.6562 53.3672 27.8906H51.9219C51.9219 27.5885 52 27.2891 52.1562 26.9922C52.3125 26.6953 52.5364 26.4271 52.8281 26.1875C53.125 25.9427 53.4791 25.75 53.8906 25.6094C54.3073 25.4635 54.7708 25.3906 55.2812 25.3906C55.8958 25.3906 56.4375 25.4948 56.9062 25.7031C57.3802 25.9115 57.75 26.2266 58.0156 26.6484C58.2864 27.0651 58.4219 27.5885 58.4219 28.2188V32.1562C58.4219 32.4375 58.4453 32.737 58.4922 33.0547C58.5443 33.3724 58.6198 33.6458 58.7187 33.875V34H57.2109C57.138 33.8333 57.0807 33.612 57.039 33.3359C56.9974 33.0547 56.9765 32.7943 56.9765 32.5547ZM57.2265 28.875L57.2422 29.8906H55.7812C55.3698 29.8906 55.0026 29.9245 54.6797 29.9922C54.3568 30.0547 54.0859 30.151 53.8672 30.2812C53.6484 30.4115 53.4818 30.5755 53.3672 30.7734C53.2526 30.9661 53.1953 31.1927 53.1953 31.4531C53.1953 31.7188 53.2552 31.9609 53.375 32.1797C53.4948 32.3984 53.6745 32.5729 53.914 32.7031C54.1588 32.8281 54.4583 32.8906 54.8125 32.8906C55.2552 32.8906 55.6458 32.7969 55.9844 32.6094C56.3229 32.4219 56.5911 32.1927 56.789 31.9219C56.9922 31.651 57.1015 31.388 57.1172 31.1328L57.7344 31.8281C57.6979 32.0469 57.5989 32.2891 57.4375 32.5547C57.276 32.8203 57.0599 33.0755 56.789 33.3203C56.5234 33.5599 56.2057 33.7604 55.8359 33.9219C55.4713 34.0781 55.0599 34.1562 54.6015 34.1562C54.0286 34.1562 53.526 34.0443 53.0937 33.8203C52.6666 33.5964 52.3333 33.2969 52.0937 32.9219C51.8594 32.5417 51.7422 32.1172 51.7422 31.6484C51.7422 31.1953 51.8307 30.7969 52.0078 30.4531C52.1849 30.1042 52.4401 29.8151 52.7734 29.5859C53.1068 29.3516 53.5078 29.1745 53.9765 29.0547C54.4453 28.9349 54.9687 28.875 55.5469 28.875H57.2265Z" fill="white"/>
<path d="M62.1406 27.3516V34H60.6953V25.5469H62.0625L62.1406 27.3516ZM61.7969 29.4531L61.1953 29.4297C61.2005 28.8516 61.2864 28.3177 61.4531 27.8281C61.6198 27.3333 61.8541 26.9036 62.1562 26.5391C62.4583 26.1745 62.8177 25.8932 63.2344 25.6953C63.6562 25.4922 64.1224 25.3906 64.6328 25.3906C65.0495 25.3906 65.4245 25.4479 65.7578 25.5625C66.0911 25.6719 66.375 25.849 66.6094 26.0938C66.8489 26.3385 67.0312 26.6562 67.1562 27.0469C67.2812 27.4323 67.3437 27.9036 67.3437 28.4609V34H65.8906V28.4453C65.8906 28.0026 65.8255 27.6484 65.6953 27.3828C65.5651 27.112 65.375 26.9167 65.125 26.7969C64.875 26.6719 64.5677 26.6094 64.2031 26.6094C63.8437 26.6094 63.5156 26.6849 63.2187 26.8359C62.9271 26.987 62.6745 27.1953 62.4609 27.4609C62.2526 27.7266 62.0885 28.0312 61.9687 28.375C61.8541 28.7135 61.7969 29.0729 61.7969 29.4531Z" fill="white"/>
<path d="M70.9844 27.3516V34H69.539V25.5469H70.9062L70.9844 27.3516ZM70.6406 29.4531L70.039 29.4297C70.0443 28.8516 70.1302 28.3177 70.2969 27.8281C70.4635 27.3333 70.6979 26.9036 71 26.5391C71.3021 26.1745 71.6614 25.8932 72.0781 25.6953C72.5 25.4922 72.9661 25.3906 73.4765 25.3906C73.8932 25.3906 74.2682 25.4479 74.6015 25.5625C74.9349 25.6719 75.2187 25.849 75.4531 26.0938C75.6927 26.3385 75.875 26.6562 76 27.0469C76.125 27.4323 76.1875 27.9036 76.1875 28.4609V34H74.7344V28.4453C74.7344 28.0026 74.6693 27.6484 74.539 27.3828C74.4088 27.112 74.2187 26.9167 73.9687 26.7969C73.7187 26.6719 73.4114 26.6094 73.0469 26.6094C72.6875 26.6094 72.3594 26.6849 72.0625 26.8359C71.7708 26.987 71.5182 27.1953 71.3047 27.4609C71.0963 27.7266 70.9323 28.0312 70.8125 28.375C70.6979 28.7135 70.6406 29.0729 70.6406 29.4531Z" fill="white"/>
<path d="M79.9531 25.5469V34H78.5V25.5469H79.9531ZM78.3906 23.3047C78.3906 23.0703 78.4609 22.8724 78.6015 22.7109C78.7474 22.5495 78.9609 22.4688 79.2422 22.4688C79.5182 22.4688 79.7292 22.5495 79.875 22.7109C80.026 22.8724 80.1015 23.0703 80.1015 23.3047C80.1015 23.5286 80.026 23.7214 79.875 23.8828C79.7292 24.0391 79.5182 24.1172 79.2422 24.1172C78.9609 24.1172 78.7474 24.0391 78.6015 23.8828C78.4609 23.7214 78.3906 23.5286 78.3906 23.3047Z" fill="white"/>
<path d="M83.7187 27.3516V34H82.2734V25.5469H83.6406L83.7187 27.3516ZM83.375 29.4531L82.7734 29.4297C82.7786 28.8516 82.8646 28.3177 83.0312 27.8281C83.1979 27.3333 83.4323 26.9036 83.7344 26.5391C84.0364 26.1745 84.3958 25.8932 84.8125 25.6953C85.2344 25.4922 85.7005 25.3906 86.2109 25.3906C86.6276 25.3906 87.0026 25.4479 87.3359 25.5625C87.6693 25.6719 87.9531 25.849 88.1875 26.0938C88.4271 26.3385 88.6094 26.6562 88.7344 27.0469C88.8594 27.4323 88.9219 27.9036 88.9219 28.4609V34H87.4687V28.4453C87.4687 28.0026 87.4036 27.6484 87.2734 27.3828C87.1432 27.112 86.9531 26.9167 86.7031 26.7969C86.4531 26.6719 86.1458 26.6094 85.7812 26.6094C85.4219 26.6094 85.0937 26.6849 84.7969 26.8359C84.5052 26.987 84.2526 27.1953 84.039 27.4609C83.8307 27.7266 83.6667 28.0312 83.5469 28.375C83.4323 28.7135 83.375 29.0729 83.375 29.4531Z" fill="white"/>
<path d="M96.5937 25.5469H97.9062V33.8203C97.9062 34.5651 97.7552 35.2005 97.4531 35.7266C97.151 36.2526 96.7292 36.651 96.1875 36.9219C95.651 37.1979 95.0312 37.3359 94.3281 37.3359C94.0364 37.3359 93.6927 37.2891 93.2969 37.1953C92.9062 37.1068 92.5208 36.9531 92.1406 36.7344C91.7656 36.5208 91.4505 36.2318 91.1953 35.8672L91.9531 35.0078C92.3073 35.4349 92.6771 35.7318 93.0625 35.8984C93.4531 36.0651 93.8385 36.1484 94.2187 36.1484C94.6771 36.1484 95.0729 36.0625 95.4062 35.8906C95.7396 35.7188 95.9974 35.4635 96.1797 35.125C96.3672 34.7917 96.4609 34.3802 96.4609 33.8906V27.4062L96.5937 25.5469ZM90.7734 29.8672V29.7031C90.7734 29.0573 90.8489 28.4714 91 27.9453C91.1562 27.4141 91.3776 26.9583 91.664 26.5781C91.9557 26.1979 92.3073 25.9062 92.7187 25.7031C93.1302 25.4948 93.5937 25.3906 94.1094 25.3906C94.6406 25.3906 95.1042 25.4844 95.5 25.6719C95.901 25.8542 96.2396 26.1224 96.5156 26.4766C96.7969 26.8255 97.0182 27.2474 97.1797 27.7422C97.3411 28.237 97.4531 28.7969 97.5156 29.4219V30.1406C97.4583 30.7604 97.3463 31.3177 97.1797 31.8125C97.0182 32.3073 96.7969 32.7292 96.5156 33.0781C96.2396 33.4271 95.901 33.6953 95.5 33.8828C95.0989 34.0651 94.6302 34.1562 94.0937 34.1562C93.5885 34.1562 93.1302 34.0495 92.7187 33.8359C92.3125 33.6224 91.9635 33.3229 91.6719 32.9375C91.3802 32.5521 91.1562 32.099 91 31.5781C90.8489 31.0521 90.7734 30.4818 90.7734 29.8672ZM92.2187 29.7031V29.8672C92.2187 30.2891 92.2604 30.6849 92.3437 31.0547C92.4323 31.4245 92.5651 31.75 92.7422 32.0312C92.9245 32.3125 93.1562 32.5339 93.4375 32.6953C93.7187 32.8516 94.0547 32.9297 94.4453 32.9297C94.9245 32.9297 95.3203 32.8281 95.6328 32.625C95.9453 32.4219 96.1927 32.1536 96.375 31.8203C96.5625 31.487 96.7083 31.125 96.8125 30.7344V28.8516C96.7552 28.5651 96.6667 28.2891 96.5469 28.0234C96.4323 27.7526 96.2812 27.513 96.0937 27.3047C95.9114 27.0911 95.6849 26.9219 95.414 26.7969C95.1432 26.6719 94.8255 26.6094 94.4609 26.6094C94.0651 26.6094 93.7239 26.6927 93.4375 26.8594C93.1562 27.0208 92.9245 27.2448 92.7422 27.5312C92.5651 27.8125 92.4323 28.1406 92.3437 28.5156C92.2604 28.8854 92.2187 29.2812 92.2187 29.7031Z" fill="white"/>
<path d="M107.453 32.9688C107.797 32.9688 108.115 32.8984 108.406 32.7578C108.698 32.6172 108.937 32.4245 109.125 32.1797C109.312 31.9297 109.419 31.6458 109.445 31.3281H110.82C110.794 31.8281 110.625 32.2943 110.312 32.7266C110.005 33.1536 109.602 33.5 109.102 33.7656C108.602 34.026 108.052 34.1562 107.453 34.1562C106.818 34.1562 106.263 34.0443 105.789 33.8203C105.32 33.5964 104.93 33.2891 104.617 32.8984C104.31 32.5078 104.078 32.0599 103.922 31.5547C103.771 31.0443 103.695 30.5052 103.695 29.9375V29.6094C103.695 29.0417 103.771 28.5052 103.922 28C104.078 27.4896 104.31 27.0391 104.617 26.6484C104.93 26.2578 105.32 25.9505 105.789 25.7266C106.263 25.5026 106.818 25.3906 107.453 25.3906C108.115 25.3906 108.693 25.526 109.187 25.7969C109.682 26.0625 110.07 26.4271 110.352 26.8906C110.638 27.349 110.794 27.8698 110.82 28.4531H109.445C109.419 28.1042 109.32 27.7891 109.148 27.5078C108.982 27.2266 108.753 27.0026 108.461 26.8359C108.174 26.6641 107.839 26.5781 107.453 26.5781C107.01 26.5781 106.638 26.6667 106.336 26.8438C106.039 27.0156 105.802 27.25 105.625 27.5469C105.453 27.8385 105.328 28.1641 105.25 28.5234C105.177 28.8776 105.141 29.2396 105.141 29.6094V29.9375C105.141 30.3073 105.177 30.6719 105.25 31.0312C105.323 31.3906 105.445 31.7161 105.617 32.0078C105.794 32.2995 106.031 32.5339 106.328 32.7109C106.63 32.8828 107.005 32.9688 107.453 32.9688Z" fill="white"/>
<path d="M112.062 29.8672V29.6875C112.062 29.0781 112.151 28.513 112.328 27.9922C112.505 27.4661 112.76 27.0104 113.094 26.625C113.427 26.2344 113.831 25.9323 114.305 25.7188C114.779 25.5 115.31 25.3906 115.898 25.3906C116.492 25.3906 117.026 25.5 117.5 25.7188C117.979 25.9323 118.385 26.2344 118.719 26.625C119.057 27.0104 119.315 27.4661 119.492 27.9922C119.669 28.513 119.758 29.0781 119.758 29.6875V29.8672C119.758 30.4766 119.669 31.0417 119.492 31.5625C119.315 32.0833 119.057 32.5391 118.719 32.9297C118.385 33.3151 117.982 33.6172 117.508 33.8359C117.039 34.0495 116.508 34.1562 115.914 34.1562C115.32 34.1562 114.786 34.0495 114.312 33.8359C113.839 33.6172 113.432 33.3151 113.094 32.9297C112.76 32.5391 112.505 32.0833 112.328 31.5625C112.151 31.0417 112.062 30.4766 112.062 29.8672ZM113.508 29.6875V29.8672C113.508 30.2891 113.557 30.6875 113.656 31.0625C113.755 31.4323 113.904 31.7604 114.102 32.0469C114.305 32.3333 114.557 32.5599 114.859 32.7266C115.161 32.888 115.513 32.9688 115.914 32.9688C116.31 32.9688 116.656 32.888 116.953 32.7266C117.255 32.5599 117.505 32.3333 117.703 32.0469C117.901 31.7604 118.049 31.4323 118.148 31.0625C118.253 30.6875 118.305 30.2891 118.305 29.8672V29.6875C118.305 29.2708 118.253 28.8776 118.148 28.5078C118.049 28.1328 117.898 27.8021 117.695 27.5156C117.497 27.224 117.247 26.9948 116.945 26.8281C116.648 26.6615 116.299 26.5781 115.898 26.5781C115.503 26.5781 115.154 26.6615 114.852 26.8281C114.555 26.9948 114.305 27.224 114.102 27.5156C113.904 27.8021 113.755 28.1328 113.656 28.5078C113.557 28.8776 113.508 29.2708 113.508 29.6875Z" fill="white"/>
<path d="M123.008 27.2266V34H121.555V25.5469H122.93L123.008 27.2266ZM122.711 29.4531L122.039 29.4297C122.044 28.8516 122.12 28.3177 122.266 27.8281C122.411 27.3333 122.628 26.9036 122.914 26.5391C123.201 26.1745 123.557 25.8932 123.984 25.6953C124.411 25.4922 124.906 25.3906 125.469 25.3906C125.865 25.3906 126.229 25.4479 126.562 25.5625C126.896 25.6719 127.185 25.8464 127.43 26.0859C127.674 26.3255 127.865 26.6328 128 27.0078C128.135 27.3828 128.203 27.8359 128.203 28.3672V34H126.758V28.4375C126.758 27.9948 126.682 27.6406 126.531 27.375C126.385 27.1094 126.177 26.9167 125.906 26.7969C125.635 26.6719 125.318 26.6094 124.953 26.6094C124.526 26.6094 124.169 26.6849 123.883 26.8359C123.596 26.987 123.367 27.1953 123.195 27.4609C123.023 27.7266 122.898 28.0312 122.82 28.375C122.747 28.7135 122.711 29.0729 122.711 29.4531ZM128.187 28.6562L127.219 28.9531C127.224 28.4896 127.299 28.0443 127.445 27.6172C127.596 27.1901 127.812 26.8099 128.094 26.4766C128.38 26.1432 128.732 25.8802 129.148 25.6875C129.565 25.4896 130.042 25.3906 130.578 25.3906C131.031 25.3906 131.432 25.4505 131.781 25.5703C132.135 25.6901 132.432 25.875 132.672 26.125C132.917 26.3698 133.102 26.6849 133.227 27.0703C133.352 27.4557 133.414 27.9141 133.414 28.4453V34H131.961V28.4297C131.961 27.9557 131.885 27.5885 131.734 27.3281C131.589 27.0625 131.38 26.8776 131.109 26.7734C130.844 26.6641 130.526 26.6094 130.156 26.6094C129.839 26.6094 129.557 26.6641 129.312 26.7734C129.068 26.8828 128.862 27.0339 128.695 27.2266C128.529 27.4141 128.401 27.6302 128.312 27.875C128.229 28.1198 128.187 28.3802 128.187 28.6562Z" fill="white"/>
<path d="M137.047 27.1719V37.25H135.594V25.5469H136.922L137.047 27.1719ZM142.742 29.7031V29.8672C142.742 30.4818 142.669 31.0521 142.523 31.5781C142.378 32.099 142.164 32.5521 141.883 32.9375C141.607 33.3229 141.266 33.6224 140.859 33.8359C140.453 34.0495 139.987 34.1562 139.461 34.1562C138.924 34.1562 138.451 34.0677 138.039 33.8906C137.628 33.7135 137.279 33.4557 136.992 33.1172C136.706 32.7786 136.477 32.3724 136.305 31.8984C136.138 31.4245 136.023 30.8906 135.961 30.2969V29.4219C136.023 28.7969 136.141 28.237 136.312 27.7422C136.484 27.2474 136.711 26.8255 136.992 26.4766C137.279 26.1224 137.625 25.8542 138.031 25.6719C138.437 25.4844 138.906 25.3906 139.437 25.3906C139.969 25.3906 140.44 25.4948 140.852 25.7031C141.263 25.9062 141.609 26.1979 141.891 26.5781C142.172 26.9583 142.383 27.4141 142.523 27.9453C142.669 28.4714 142.742 29.0573 142.742 29.7031ZM141.289 29.8672V29.7031C141.289 29.2812 141.245 28.8854 141.156 28.5156C141.068 28.1406 140.93 27.8125 140.742 27.5312C140.56 27.2448 140.326 27.0208 140.039 26.8594C139.753 26.6927 139.411 26.6094 139.016 26.6094C138.651 26.6094 138.333 26.6719 138.062 26.7969C137.797 26.9219 137.57 27.0911 137.383 27.3047C137.195 27.513 137.042 27.7526 136.922 28.0234C136.807 28.2891 136.721 28.5651 136.664 28.8516V30.875C136.768 31.2396 136.914 31.5833 137.102 31.9062C137.289 32.224 137.539 32.4818 137.852 32.6797C138.164 32.8724 138.557 32.9688 139.031 32.9688C139.422 32.9688 139.758 32.888 140.039 32.7266C140.326 32.5599 140.56 32.3333 140.742 32.0469C140.93 31.7604 141.068 31.4323 141.156 31.0625C141.245 30.6875 141.289 30.2891 141.289 29.8672Z" fill="white"/>
<path d="M146.156 22V34H144.703V22H146.156Z" fill="white"/>
<path d="M151.984 34.1562C151.396 34.1562 150.862 34.0573 150.383 33.8594C149.909 33.6562 149.5 33.3724 149.156 33.0078C148.818 32.6432 148.557 32.2109 148.375 31.7109C148.193 31.2109 148.102 30.6641 148.102 30.0703V29.7422C148.102 29.0547 148.203 28.4427 148.406 27.9062C148.609 27.3646 148.885 26.9062 149.234 26.5312C149.583 26.1562 149.979 25.8724 150.422 25.6797C150.865 25.487 151.323 25.3906 151.797 25.3906C152.401 25.3906 152.922 25.4948 153.359 25.7031C153.802 25.9115 154.164 26.2031 154.445 26.5781C154.727 26.9479 154.935 27.3854 155.07 27.8906C155.206 28.3906 155.273 28.9375 155.273 29.5312V30.1797H148.961V29H153.828V28.8906C153.807 28.5156 153.729 28.151 153.594 27.7969C153.464 27.4427 153.255 27.151 152.969 26.9219C152.682 26.6927 152.292 26.5781 151.797 26.5781C151.469 26.5781 151.167 26.6484 150.891 26.7891C150.615 26.9245 150.378 27.1276 150.18 27.3984C149.982 27.6693 149.828 28 149.719 28.3906C149.609 28.7812 149.555 29.2318 149.555 29.7422V30.0703C149.555 30.4714 149.609 30.849 149.719 31.2031C149.833 31.5521 149.997 31.8594 150.211 32.125C150.43 32.3906 150.693 32.599 151 32.75C151.312 32.901 151.667 32.9766 152.062 32.9766C152.573 32.9766 153.005 32.8724 153.359 32.6641C153.714 32.4557 154.023 32.1771 154.289 31.8281L155.164 32.5234C154.982 32.7995 154.75 33.0625 154.469 33.3125C154.187 33.5625 153.841 33.7656 153.43 33.9219C153.023 34.0781 152.542 34.1562 151.984 34.1562Z" fill="white"/>
<path d="M160.5 25.5469V26.6562H155.93V25.5469H160.5ZM157.477 23.4922H158.922V31.9062C158.922 32.1927 158.966 32.4089 159.055 32.5547C159.143 32.7005 159.258 32.7969 159.398 32.8438C159.539 32.8906 159.69 32.9141 159.852 32.9141C159.971 32.9141 160.096 32.9036 160.227 32.8828C160.362 32.8568 160.464 32.8359 160.531 32.8203L160.539 34C160.424 34.0365 160.273 34.0703 160.086 34.1016C159.904 34.138 159.682 34.1562 159.422 34.1562C159.068 34.1562 158.742 34.0859 158.445 33.9453C158.148 33.8047 157.911 33.5703 157.734 33.2422C157.562 32.9089 157.477 32.4609 157.477 31.8984V23.4922Z" fill="white"/>
</svg>
