<svg width="86" height="86" viewBox="0 0 86 86" fill="none" xmlns="http://www.w3.org/2000/svg">
<mask id="path-1-inside-1_419_194" fill="white">
<path d="M86 43C86 66.7482 66.7482 86 43 86C19.2518 86 0 66.7482 0 43C0 19.2518 19.2518 0 43 0C66.7482 0 86 19.2518 86 43Z"/>
</mask>
<path d="M43.7678 30.2322C42.7915 29.2559 41.2085 29.2559 40.2322 30.2322L24.3223 46.1421C23.346 47.1184 23.346 48.7014 24.3223 49.6777C25.2986 50.654 26.8816 50.654 27.8579 49.6777L42 35.5355L56.1421 49.6777C57.1184 50.654 58.7014 50.654 59.6777 49.6777C60.654 48.7014 60.654 47.1184 59.6777 46.1421L43.7678 30.2322ZM44.5 33V32H39.5V33H44.5ZM81 43C81 63.9868 63.9868 81 43 81V91C69.5097 91 91 69.5097 91 43H81ZM43 81C22.0132 81 5 63.9868 5 43H-5C-5 69.5097 16.4903 91 43 91V81ZM5 43C5 22.0132 22.0132 5 43 5V-5C16.4903 -5 -5 16.4903 -5 43H5ZM43 5C63.9868 5 81 22.0132 81 43H91C91 16.4903 69.5097 -5 43 -5V5Z" fill="white" mask="url(#path-1-inside-1_419_194)"/>
</svg>
